<mxfile host="Electron" agent="Mozilla/5.0 (X11; Linux x86_64) AppleWebKit/537.36 (KHTML, like Gecko) draw.io/24.7.8 Chrome/128.0.6613.36 Electron/32.0.1 Safari/537.36" version="24.7.8">
  <diagram name="Page-1" id="Euz_89842Op8s6j0UW8T">
    <mxGraphModel dx="1195" dy="1842" grid="1" gridSize="10" guides="1" tooltips="1" connect="1" arrows="1" fold="1" page="1" pageScale="1" pageWidth="827" pageHeight="1169" background="none" math="0" shadow="0">
      <root>
        <mxCell id="0" />
        <mxCell id="1" parent="0" />
        <mxCell id="-RrW7HURd31K2FjlYADp-17" value="²" style="fontColor=#0066CC;verticalAlign=top;verticalLabelPosition=bottom;labelPosition=center;align=center;html=1;outlineConnect=0;fillColor=#CCCCCC;strokeColor=#6881B3;gradientColor=none;gradientDirection=north;strokeWidth=2;shape=mxgraph.networks.pc;" vertex="1" parent="1">
          <mxGeometry x="70" y="385.8" width="200" height="204.2" as="geometry" />
        </mxCell>
        <mxCell id="-RrW7HURd31K2FjlYADp-18" value="&lt;div style=&quot;font-size: 20px;&quot;&gt;&lt;font style=&quot;font-size: 20px;&quot;&gt;PC1 &lt;br&gt;&lt;/font&gt;&lt;/div&gt;&lt;div style=&quot;font-size: 20px;&quot;&gt;&lt;font style=&quot;font-size: 20px;&quot;&gt;192.168.1.111&lt;/font&gt;&lt;/div&gt;&lt;div style=&quot;font-size: 20px;&quot;&gt;&lt;font style=&quot;font-size: 20px;&quot;&gt;10.0.0.1&lt;/font&gt;&lt;br&gt;&lt;/div&gt;" style="text;html=1;align=center;verticalAlign=middle;whiteSpace=wrap;rounded=0;" vertex="1" parent="1">
          <mxGeometry x="120" y="390.40000000000003" width="150" height="135" as="geometry" />
        </mxCell>
        <mxCell id="-RrW7HURd31K2FjlYADp-19" value="" style="endArrow=classic;html=1;rounded=0;exitX=0.75;exitY=0;exitDx=0;exitDy=0;" edge="1" parent="1" source="-RrW7HURd31K2FjlYADp-18" target="-RrW7HURd31K2FjlYADp-22">
          <mxGeometry width="50" height="50" relative="1" as="geometry">
            <mxPoint x="185" y="310" as="sourcePoint" />
            <mxPoint x="340" y="170" as="targetPoint" />
          </mxGeometry>
        </mxCell>
        <mxCell id="-RrW7HURd31K2FjlYADp-20" value="Eno1" style="edgeLabel;html=1;align=center;verticalAlign=middle;resizable=0;points=[];" vertex="1" connectable="0" parent="-RrW7HURd31K2FjlYADp-19">
          <mxGeometry x="0.1402" y="3" relative="1" as="geometry">
            <mxPoint x="-2" y="18" as="offset" />
          </mxGeometry>
        </mxCell>
        <mxCell id="-RrW7HURd31K2FjlYADp-22" value="" style="fontColor=#0066CC;verticalAlign=top;verticalLabelPosition=bottom;labelPosition=center;align=center;html=1;outlineConnect=0;fillColor=#CCCCCC;strokeColor=#6881B3;gradientColor=none;gradientDirection=north;strokeWidth=2;shape=mxgraph.networks.firewall;" vertex="1" parent="1">
          <mxGeometry x="307" y="-20" width="203" height="180" as="geometry" />
        </mxCell>
        <mxCell id="-RrW7HURd31K2FjlYADp-23" value="" style="fontColor=#0066CC;verticalAlign=top;verticalLabelPosition=bottom;labelPosition=center;align=center;html=1;outlineConnect=0;fillColor=#CCCCCC;strokeColor=#6881B3;gradientColor=none;gradientDirection=north;strokeWidth=2;shape=mxgraph.networks.pc;" vertex="1" parent="1">
          <mxGeometry x="520" y="385.8" width="200" height="204.2" as="geometry" />
        </mxCell>
        <mxCell id="-RrW7HURd31K2FjlYADp-24" value="&lt;div style=&quot;font-size: 20px;&quot;&gt;&lt;font style=&quot;font-size: 20px;&quot;&gt;PC2&lt;br&gt;&lt;/font&gt;&lt;/div&gt;&lt;div style=&quot;font-size: 20px;&quot;&gt;&lt;font style=&quot;font-size: 20px;&quot;&gt;192.168.1.112&lt;/font&gt;&lt;/div&gt;&lt;div style=&quot;font-size: 20px;&quot;&gt;&lt;font style=&quot;font-size: 20px;&quot;&gt;10.0.0.2&lt;/font&gt;&lt;br&gt;&lt;/div&gt;" style="text;html=1;align=center;verticalAlign=middle;whiteSpace=wrap;rounded=0;" vertex="1" parent="1">
          <mxGeometry x="580" y="405.8" width="110" height="104.2" as="geometry" />
        </mxCell>
        <mxCell id="-RrW7HURd31K2FjlYADp-26" value="" style="endArrow=classic;html=1;rounded=0;" edge="1" parent="1" source="-RrW7HURd31K2FjlYADp-23" target="-RrW7HURd31K2FjlYADp-22">
          <mxGeometry relative="1" as="geometry">
            <mxPoint x="660" y="220" as="sourcePoint" />
            <mxPoint x="760" y="220" as="targetPoint" />
          </mxGeometry>
        </mxCell>
        <mxCell id="-RrW7HURd31K2FjlYADp-27" value="Eno1" style="edgeLabel;resizable=0;html=1;;align=center;verticalAlign=middle;" connectable="0" vertex="1" parent="-RrW7HURd31K2FjlYADp-26">
          <mxGeometry relative="1" as="geometry" />
        </mxCell>
        <mxCell id="-RrW7HURd31K2FjlYADp-28" value="" style="image;aspect=fixed;perimeter=ellipsePerimeter;html=1;align=center;shadow=0;dashed=0;spacingTop=3;image=img/lib/active_directory/key.svg;" vertex="1" parent="1">
          <mxGeometry x="555" y="230" width="50" height="37" as="geometry" />
        </mxCell>
        <mxCell id="-RrW7HURd31K2FjlYADp-30" value="Envoie de la clé publique client" style="text;html=1;align=center;verticalAlign=middle;whiteSpace=wrap;rounded=0;" vertex="1" parent="1">
          <mxGeometry x="550" y="290" width="60" height="30" as="geometry" />
        </mxCell>
        <mxCell id="-RrW7HURd31K2FjlYADp-31" value="" style="image;aspect=fixed;perimeter=ellipsePerimeter;html=1;align=center;shadow=0;dashed=0;spacingTop=3;image=img/lib/active_directory/key.svg;" vertex="1" parent="1">
          <mxGeometry x="200" y="230" width="50" height="37" as="geometry" />
        </mxCell>
        <mxCell id="-RrW7HURd31K2FjlYADp-32" value="Envoie de la clé publique serveur" style="text;html=1;align=center;verticalAlign=middle;whiteSpace=wrap;rounded=0;" vertex="1" parent="1">
          <mxGeometry x="195" y="290" width="60" height="30" as="geometry" />
        </mxCell>
      </root>
    </mxGraphModel>
  </diagram>
</mxfile>
